<?xml version="1.0" encoding="UTF-8"?>
<svg xmlns="http://www.w3.org/2000/svg" xmlns:xlink="http://www.w3.org/1999/xlink" width="1200pt" height="341pt" viewBox="0 0 1200 341" version="1.2">
<g id="surface1">
<path style=" stroke:none;fill-rule:nonzero;fill:rgb(95.294189%,68.235779%,12.940979%);fill-opacity:1;" d="M 132.152344 153.480469 C 131.816406 162.046875 138.367188 169.261719 147.027344 169.875 C 155.507812 170.476562 162.921875 163.421875 162.851562 154.796875 C 162.785156 146.105469 155.699219 138.84375 147.347656 138.890625 C 139.03125 138.933594 132.472656 145.242188 132.152344 153.480469 "/>
<path style=" stroke:none;fill-rule:nonzero;fill:rgb(18.431091%,66.275024%,87.059021%);fill-opacity:1;" d="M 85.265625 191.058594 C 84.351562 198.398438 91.515625 205.710938 100.722656 206.878906 C 110.582031 208.125 117.449219 203.105469 117.792969 194.386719 C 118.121094 185.957031 111.546875 179.203125 102.519531 178.714844 C 94.050781 178.261719 86.15625 183.921875 85.265625 191.058594 "/>
<path style=" stroke:none;fill-rule:nonzero;fill:rgb(90.196228%,25.881958%,18.431091%);fill-opacity:1;" d="M 186.320312 92.710938 C 178.542969 93.480469 172.789062 100.800781 173.023438 109.628906 C 173.253906 118.3125 179.929688 125.242188 188.003906 125.167969 C 196.636719 125.085938 202.421875 117.945312 201.703125 108.261719 C 200.972656 98.488281 194.449219 91.90625 186.320312 92.710938 "/>
<path style=" stroke:none;fill-rule:nonzero;fill:rgb(92.941284%,59.216309%,0%);fill-opacity:1;" d="M 45.042969 37.855469 L 26.164062 129.921875 L 59.070312 98.628906 Z M 45.042969 37.855469 "/>
<path style=" stroke:none;fill-rule:nonzero;fill:rgb(94.117737%,75.294495%,32.548523%);fill-opacity:1;" d="M 139.273438 22.351562 L 45.042969 37.855469 L 105.304688 54.65625 Z M 139.273438 22.351562 "/>
<path style=" stroke:none;fill-rule:nonzero;fill:rgb(96.078491%,67.843628%,8.235168%);fill-opacity:1;" d="M 105.304688 54.65625 L 45.042969 37.855469 L 59.070312 98.628906 Z M 105.304688 54.65625 "/>
<path style=" stroke:none;fill-rule:nonzero;fill:rgb(100%,32.548523%,29.019165%);fill-opacity:1;" d="M 272.476562 0.433594 L 139.28125 22.351562 L 173.894531 45.746094 Z M 272.476562 0.433594 "/>
<path style=" stroke:none;fill-rule:nonzero;fill:rgb(74.510193%,11.764526%,17.64679%);fill-opacity:1;" d="M 299.621094 130.726562 L 272.476562 0.433594 L 237.066406 88.445312 Z M 299.621094 130.726562 "/>
<path style=" stroke:none;fill-rule:nonzero;fill:rgb(90.196228%,24.705505%,18.431091%);fill-opacity:1;" d="M 237.066406 88.445312 L 272.476562 0.433594 L 173.894531 45.746094 Z M 237.066406 88.445312 "/>
<path style=" stroke:none;fill-rule:nonzero;fill:rgb(100%,100%,100%);fill-opacity:1;" d="M 89.316406 229.03125 L 48.808594 165.464844 Z M 89.316406 229.03125 "/>
<path style=" stroke:none;fill-rule:nonzero;fill:rgb(15.293884%,45.489502%,71.372986%);fill-opacity:1;" d="M 89.316406 229.03125 L 0 257.527344 L 128.402344 290.371094 Z M 89.316406 229.03125 "/>
<path style=" stroke:none;fill-rule:nonzero;fill:rgb(17.64679%,66.667175%,87.843323%);fill-opacity:1;" d="M 26.164062 129.921875 L 0 257.527344 L 48.808594 165.464844 Z M 26.164062 129.921875 "/>
<path style=" stroke:none;fill-rule:nonzero;fill:rgb(5.882263%,56.471252%,80.784607%);fill-opacity:1;" d="M 48.808594 165.464844 L 0 257.527344 L 89.316406 229.03125 Z M 48.808594 165.464844 "/>
<path style=" stroke:none;fill-rule:nonzero;fill:rgb(69.020081%,83.921814%,45.489502%);fill-opacity:1;" d="M 251.109375 175.972656 L 344.359375 345.601562 L 299.632812 130.726562 Z M 251.109375 175.972656 "/>
<path style=" stroke:none;fill-rule:nonzero;fill:rgb(50.196838%,68.62793%,20.783997%);fill-opacity:1;" d="M 128.402344 290.394531 L 344.359375 345.601562 L 174.03125 247.847656 Z M 128.402344 290.394531 "/>
<path style=" stroke:none;fill-rule:nonzero;fill:rgb(32.940674%,100%,0%);fill-opacity:1;" d="M 174.03125 247.847656 L 186.804688 235.9375 Z M 174.03125 247.847656 "/>
<path style=" stroke:none;fill-rule:nonzero;fill:rgb(55.2948%,77.6474%,24.705505%);fill-opacity:1;" d="M 240.285156 186.070312 L 276.804688 273.757812 L 186.804688 235.9375 L 174.03125 247.847656 L 344.359375 345.601562 L 251.109375 175.972656 Z M 240.285156 186.070312 "/>
<path style=" stroke:none;fill-rule:nonzero;fill:rgb(74.510193%,13.725281%,18.03894%);fill-opacity:1;" d="M 690.566406 212.269531 C 689.621094 181.507812 688.699219 151.414062 687.773438 121.324219 C 688.082031 121.3125 688.390625 121.304688 688.703125 121.296875 C 695.496094 151.175781 702.023438 180.808594 708.328125 210.492188 L 708.3125 210.597656 L 708.351562 210.59375 C 708.359375 210.625 708.363281 210.660156 708.375 210.695312 C 709.007812 210.625 709.625 210.542969 710.230469 210.457031 L 723.402344 209.519531 L 723.804688 207.101562 C 724.101562 206.410156 724.296875 205.589844 724.425781 204.660156 C 724.894531 201.339844 725.382812 198.023438 725.875 194.710938 L 738.082031 121.710938 C 738.128906 121.710938 738.175781 121.71875 738.226562 121.726562 L 739.027344 207.632812 L 739.105469 207.5 C 745.628906 206.839844 751.515625 206.246094 757.238281 205.664062 L 758.167969 58.574219 C 748.84375 57.941406 740.027344 57.328125 731.277344 56.703125 C 731.246094 56.699219 731.214844 56.699219 731.183594 56.695312 L 719.222656 135.910156 L 715.25 162.128906 L 715.046875 163.449219 L 714.796875 162.113281 L 711.457031 144.503906 C 705.984375 114.574219 700.273438 84.417969 694.3125 53.953125 C 683.941406 53.160156 674.210938 52.390625 664.152344 51.574219 C 666.386719 105.804688 668.621094 160.03125 670.851562 214.261719 C 677.578125 213.582031 683.855469 212.953125 690.566406 212.269531 "/>
<path style=" stroke:none;fill-rule:nonzero;fill:rgb(56.863403%,76.863098%,28.234863%);fill-opacity:1;" d="M 940.398438 228.882812 C 939.195312 238.480469 937.976562 248.113281 936.746094 257.730469 C 935.476562 267.878906 934.039062 278.046875 932.996094 288.1875 C 932.472656 293.261719 929.691406 296.597656 924.851562 299.066406 C 916.851562 303.128906 909.164062 303.917969 901.746094 301.578125 C 897.238281 300.15625 895.152344 297.246094 895.769531 291.851562 C 897.921875 272.921875 900.164062 253.964844 901.304688 235.097656 C 902.03125 222.765625 907.457031 220.152344 919.996094 217.132812 C 923.207031 216.339844 926.699219 216.5 929.914062 216.769531 C 938.640625 217.464844 941.410156 220.832031 940.398438 228.882812 M 963.3125 202.078125 C 936.871094 193.730469 909.621094 196.90625 883.910156 212.625 C 874.484375 218.382812 869.851562 226.511719 869.203125 236.613281 C 867.953125 255.339844 866.59375 274.078125 864.851562 292.832031 C 863.824219 303.824219 867.90625 311.160156 876.777344 315.9375 C 891.167969 323.652344 907.40625 322.597656 924.296875 319.242188 C 936.207031 316.886719 947.589844 311.859375 957.917969 303.585938 C 963.972656 298.71875 967.898438 293.101562 968.863281 286.207031 C 970.347656 275.578125 972.101562 264.921875 973.75 254.265625 C 975.203125 244.808594 976.058594 235.367188 978.253906 225.910156 C 981.246094 213.179688 975.316406 205.871094 963.3125 202.078125 "/>
<path style=" stroke:none;fill-rule:nonzero;fill:rgb(92.549133%,59.608459%,13.725281%);fill-opacity:1;" d="M 420.933594 229.324219 C 436.507812 210.042969 430.609375 184.773438 426.078125 158.980469 C 416.496094 159.105469 407.386719 159.214844 398.03125 159.3125 C 399.765625 170.109375 401.570312 179.882812 402.839844 189.601562 C 404.285156 200.644531 397.425781 209.195312 388.351562 208.28125 C 379.84375 207.429688 373.042969 199.320312 370.980469 187.429688 C 364.265625 148.71875 357.574219 110.011719 350.914062 71.304688 C 348.625 58.015625 354.285156 49.757812 364.59375 51.105469 C 374.914062 52.453125 382.261719 61.25 384.488281 74.976562 C 385.625 81.96875 386.738281 88.957031 387.980469 96.683594 C 397.871094 97.117188 407.15625 97.507812 416.753906 97.898438 C 415.75 80.414062 412.085938 63.679688 407.246094 54.265625 C 395.410156 31.222656 372.371094 16.148438 351.265625 17.675781 C 329.332031 19.257812 315.902344 39.46875 320.414062 64.605469 C 328.121094 107.511719 336.046875 150.449219 344.03125 193.378906 C 344.839844 197.734375 346.328125 202.265625 348.113281 206.519531 C 363.230469 242.566406 401.296875 253.640625 420.933594 229.324219 "/>
<path style=" stroke:none;fill-rule:nonzero;fill:rgb(95.294189%,67.451477%,11.372375%);fill-opacity:1;" d="M 462.78125 68.496094 C 464.820312 61.996094 471.144531 59.324219 477.613281 61.378906 C 484.667969 63.625 490.058594 69.746094 491.039062 77.382812 C 493.347656 95.601562 495.417969 113.820312 497.601562 132.035156 C 499.707031 149.589844 501.746094 167.160156 503.945312 184.730469 C 504.738281 191.117188 502.980469 195.957031 498.945312 199.53125 C 492.148438 205.554688 480.808594 200.8125 477.328125 190.421875 C 476.523438 188.0625 476.046875 185.597656 475.71875 183.195312 C 471.117188 148.277344 466.496094 113.34375 462.070312 78.441406 C 461.644531 75.058594 461.847656 71.46875 462.78125 68.496094 M 442.980469 130.691406 C 445.703125 149.8125 448.230469 168.914062 451.140625 188.019531 C 454.144531 207.804688 466.433594 224.804688 481.648438 230.808594 C 497.460938 237.058594 513.511719 230.890625 522.746094 216.042969 C 529.246094 205.636719 530.65625 193.554688 529.246094 180.398438 C 525.941406 149.527344 522.636719 118.65625 519.203125 87.804688 C 518.605469 82.460938 517.828125 77.019531 516.359375 71.707031 C 511.980469 55.847656 502.457031 43.210938 486.992188 35.589844 C 471.761719 28.074219 458.003906 28.757812 447.1875 37.671875 C 436.59375 46.417969 433.113281 59.5 435.199219 75.375 C 437.605469 93.796875 440.371094 112.253906 442.980469 130.691406 "/>
<path style=" stroke:none;fill-rule:nonzero;fill:rgb(74.510193%,13.725281%,18.03894%);fill-opacity:1;" d="M 893.390625 191.523438 C 897.175781 149.664062 900.921875 108.222656 904.660156 66.914062 C 899.082031 66.652344 894.046875 66.410156 888.589844 66.144531 C 886.4375 92.902344 884.3125 119.292969 882.066406 147.128906 C 881.382812 145.285156 881.132812 144.839844 881.054688 144.367188 C 876.917969 119.382812 872.558594 94.164062 867.757812 68.726562 C 867.484375 67.253906 866.050781 64.914062 864.859375 64.765625 C 859.257812 64.0625 853.554688 63.980469 848.015625 63.675781 C 845.488281 108.519531 843.015625 152.449219 840.496094 197.085938 C 845.9375 196.550781 850.988281 196.050781 856.460938 195.503906 C 858.191406 169.484375 859.894531 143.863281 861.59375 118.246094 C 862.035156 118.171875 862.472656 118.101562 862.910156 118.03125 C 868.015625 143.304688 872.828125 168.328125 877.390625 193.398438 C 883.125 192.726562 888.210938 192.128906 893.390625 191.523438 "/>
<path style=" stroke:none;fill-rule:nonzero;fill:rgb(18.431091%,66.275024%,87.059021%);fill-opacity:1;" d="M 664.410156 295.742188 C 666.277344 281.667969 668.09375 268.386719 669.960938 255.148438 C 670.277344 255.117188 670.625 255.101562 670.9375 255.101562 C 673.976562 268.117188 676.949219 281.085938 679.988281 294.511719 C 674.625 294.9375 670.023438 295.300781 664.410156 295.742188 M 676.847656 225.527344 L 670.390625 226.246094 L 655.613281 227.886719 L 653.621094 228.109375 L 652.996094 232.179688 L 637.003906 336.527344 L 636.648438 338.839844 L 636.792969 338.753906 C 644.238281 338.40625 650.929688 338.089844 657.878906 337.746094 C 659.003906 330.425781 660.046875 323.277344 661.375 316.222656 C 661.640625 314.769531 662.84375 312.488281 663.777344 312.414062 C 670.5625 311.828125 677.390625 311.699219 684.113281 311.429688 C 686.203125 319.988281 688.097656 327.878906 690.058594 335.992188 C 698.316406 335.53125 705.921875 335.105469 713.957031 334.632812 C 704.910156 298.320312 695.421875 261.964844 685.25 224.582031 C 682.402344 224.871094 679.609375 225.203125 676.847656 225.527344 "/>
<path style=" stroke:none;fill-rule:nonzero;fill:rgb(74.510193%,13.725281%,18.03894%);fill-opacity:1;" d="M 827.777344 167.046875 C 829.273438 134.277344 830.871094 101.507812 832.425781 68.734375 C 832.511719 66.910156 832.597656 65.085938 832.691406 63.183594 C 826.160156 62.8125 820.296875 62.46875 814.089844 62.097656 C 813.996094 64.726562 813.914062 66.960938 813.828125 69.195312 C 812.609375 102.246094 811.429688 135.300781 810.132812 168.355469 C 809.835938 175.863281 804.964844 181.375 799.257812 181.199219 C 793.933594 181.035156 790.609375 176.015625 790.753906 168.351562 C 790.777344 167.214844 790.8125 166.074219 790.839844 164.941406 C 791.671875 132.328125 792.5 99.722656 793.328125 67.109375 C 793.378906 65.09375 793.429688 63.070312 793.488281 60.808594 C 787.203125 60.414062 781.699219 60.0625 775.4375 59.652344 C 775.207031 61.0625 774.882812 62.144531 774.867188 63.25 C 774.300781 99.195312 773.496094 135.144531 773.46875 171.089844 C 773.464844 177.855469 775.335938 185.269531 778.546875 191.222656 C 786.582031 206.101562 804.621094 207 816.617188 194.414062 C 824.179688 186.480469 827.3125 177.246094 827.777344 167.046875 "/>
<path style=" stroke:none;fill-rule:nonzero;fill:rgb(69.020081%,82.745361%,45.881653%);fill-opacity:1;" d="M 710.199219 239.363281 C 718.71875 238.722656 726.882812 238.097656 735.667969 237.417969 C 735.863281 269.683594 736.054688 301.289062 736.246094 333.082031 C 744.863281 332.542969 752.917969 332.023438 761.476562 331.453125 C 761.785156 298.972656 762.085938 267.011719 762.390625 234.753906 C 771.949219 233.769531 781.003906 232.828125 790.480469 231.835938 C 790.632812 225.957031 790.785156 220.226562 790.945312 214.09375 C 763.644531 216.882812 736.855469 219.566406 709.847656 222.222656 C 709.972656 228.339844 710.082031 233.570312 710.199219 239.363281 "/>
<path style=" stroke:none;fill-rule:nonzero;fill:rgb(69.020081%,82.745361%,45.881653%);fill-opacity:1;" d="M 839.855469 209.042969 C 831.613281 209.910156 823.382812 210.8125 814.738281 211.738281 C 813.144531 250.851562 811.574219 289.445312 810.007812 327.984375 C 819.265625 327.292969 828.121094 326.609375 836.914062 325.914062 C 839.21875 286.730469 841.503906 247.929688 843.796875 208.972656 C 842.191406 208.996094 841.019531 208.921875 839.855469 209.042969 "/>
<path style=" stroke:none;fill-rule:nonzero;fill:rgb(14.901733%,56.863403%,79.608154%);fill-opacity:1;" d="M 530.386719 328.398438 C 524.804688 328.527344 521.039062 324.574219 520.15625 317.285156 C 518.035156 300.1875 516.011719 283.105469 514.082031 266.011719 C 513.230469 258.46875 516.5625 254.390625 523 254.484375 C 529.183594 254.59375 532.015625 257.824219 532.929688 265.902344 C 533.882812 274.265625 534.78125 282.617188 535.714844 291 C 536.648438 299.570312 537.644531 308.140625 538.546875 316.714844 C 539.273438 323.734375 536.046875 328.257812 530.386719 328.398438 M 553.761719 290.792969 C 552.777344 281.210938 551.75 271.644531 550.851562 262.058594 C 549.980469 253.011719 545.410156 246.625 538.007812 242.292969 C 526.859375 235.730469 511.488281 237.738281 503.53125 246.785156 C 499.039062 251.921875 497.050781 258.265625 498.046875 266.171875 C 500.308594 284.058594 502.554688 301.957031 504.832031 319.863281 C 506.238281 330.707031 511.882812 338.457031 520.46875 341.683594 C 526.242188 343.851562 532.742188 344.53125 538.417969 343.582031 C 549.820312 341.667969 558.820312 330.15625 556.398438 315.683594 C 555.023438 307.445312 554.613281 299.097656 553.761719 290.792969 "/>
<path style=" stroke:none;fill-rule:nonzero;fill:rgb(14.901733%,56.863403%,79.608154%);fill-opacity:1;" d="M 494.65625 344.402344 C 490.105469 309.964844 485.730469 276.859375 481.277344 243.191406 C 476.179688 243.71875 471.558594 244.199219 466.132812 244.757812 C 469.019531 265.589844 471.851562 286 474.683594 306.410156 L 459.40625 273.359375 C 457.824219 269.757812 456.257812 266.148438 454.691406 262.53125 C 452.222656 256.832031 450.617188 253.117188 448.960938 250.757812 L 446.710938 245.890625 L 431.890625 246.429688 L 433.136719 254.304688 C 437.742188 284.441406 442.363281 314.652344 447 344.992188 C 451.464844 344.925781 455.613281 344.859375 460.652344 344.773438 C 460.652344 344.769531 460.652344 344.769531 460.652344 344.765625 L 460.71875 344.765625 L 452.015625 286.039062 L 469.1875 322.433594 C 471.761719 328.085938 474.332031 333.71875 476.914062 339.320312 C 477.234375 340.011719 477.679688 340.785156 478.1875 341.515625 L 479.847656 345.035156 L 494.664062 344.496094 L 494.609375 344.402344 C 494.625 344.402344 494.640625 344.402344 494.65625 344.402344 "/>
<path style=" stroke:none;fill-rule:nonzero;fill:rgb(90.196228%,25.881958%,18.431091%);fill-opacity:1;" d="M 966.550781 157.363281 C 966.089844 159.71875 965.3125 162.394531 963.617188 164.289062 C 962 166.09375 958.773438 168.207031 956.699219 168.105469 C 954.625 168.003906 952.324219 165.617188 951.515625 163.675781 C 950.578125 161.429688 950.828125 158.582031 951.148438 155.992188 C 953.492188 136.71875 955.902344 117.445312 958.519531 98.175781 C 958.910156 95.28125 959.84375 92.125 961.707031 89.640625 C 963.058594 87.84375 966.402344 86.019531 968.777344 85.960938 C 970.738281 85.910156 973.246094 88.128906 974.246094 89.875 C 975.300781 91.71875 975.175781 94.199219 974.996094 96.40625 C 974.660156 100.550781 973.917969 104.699219 973.308594 109.117188 C 978.453125 108.929688 983.015625 108.757812 988.253906 108.558594 C 988.992188 103.589844 989.914062 99.273438 990.210938 94.980469 C 990.773438 86.929688 989.757812 79.226562 983.214844 72.933594 C 976.925781 66.882812 966.574219 66.230469 958.53125 71.632812 C 950.625 76.949219 946.175781 83.960938 945.148438 91.976562 C 942.074219 115.957031 939.183594 139.960938 936.777344 163.941406 C 936.324219 168.484375 937.527344 173.386719 939.511719 177.390625 C 945.542969 189.558594 960.050781 189.582031 970.675781 178.140625 C 981.226562 166.78125 981.601562 154.285156 983.199219 141.425781 C 977.945312 141.675781 973.511719 141.878906 968.746094 142.097656 C 967.980469 147.660156 967.503906 152.519531 966.550781 157.363281 "/>
<path style=" stroke:none;fill-rule:nonzero;fill:rgb(90.196228%,25.881958%,18.431091%);fill-opacity:1;" d="M 1020.148438 102.480469 C 1020.527344 102.464844 1020.921875 102.449219 1021.285156 102.417969 C 1020.652344 114.132812 1019.972656 125.804688 1019.230469 138.109375 C 1016.066406 138.269531 1013.519531 138.378906 1010.121094 138.535156 C 1013.519531 126.21875 1016.808594 114.34375 1020.148438 102.480469 M 1005.359375 155.03125 C 1009.867188 154.683594 1013.867188 154.367188 1018.21875 154.019531 C 1017.855469 162.242188 1017.503906 170.023438 1017.128906 178.199219 C 1021.648438 177.613281 1025.632812 177.125 1030.25 176.535156 C 1032.324219 141.589844 1034.03125 106.765625 1035.421875 71.707031 C 1028.796875 71.519531 1023.074219 71.34375 1016.714844 71.152344 C 1005.566406 107.730469 994.796875 144.4375 984.230469 181.945312 C 989.546875 181.234375 993.703125 180.679688 997.992188 180.109375 C 1000.472656 171.570312 1002.894531 163.332031 1005.359375 155.03125 "/>
<path style=" stroke:none;fill-rule:nonzero;fill:rgb(16.470337%,45.881653%,70.980835%);fill-opacity:1;" d="M 419.96875 248.445312 C 415.460938 248.929688 411.3125 249.375 406.867188 249.855469 C 410.140625 269.898438 413.3125 289.363281 416.484375 308.828125 L 396.667969 265.347656 C 396.269531 264.433594 395.871094 263.515625 395.472656 262.605469 C 394.058594 259.363281 392.996094 256.949219 392.035156 255.1875 L 390.433594 251.671875 L 389.355469 251.792969 L 377.90625 253.089844 L 377.898438 253.089844 L 377.523438 253.15625 L 377.46875 253.164062 C 377.46875 253.164062 377.5 253.222656 377.554688 253.332031 C 382.972656 284.351562 388.320312 314.96875 393.667969 345.601562 C 397.558594 345.578125 400.996094 345.550781 405.136719 345.515625 C 401.992188 327.023438 398.902344 308.839844 395.808594 290.652344 L 413.988281 328.511719 L 420.921875 342.953125 L 421.921875 345.035156 L 435.125 345.035156 L 435.039062 344.890625 C 435.082031 344.882812 435.132812 344.875 435.179688 344.867188 C 430.109375 312.710938 425.089844 280.910156 419.96875 248.445312 "/>
<path style=" stroke:none;fill-rule:nonzero;fill:rgb(94.117737%,33.724976%,30.587769%);fill-opacity:1;" d="M 1189.910156 74.320312 C 1184.570312 92.265625 1179.363281 109.753906 1174.160156 127.242188 C 1173.878906 127.257812 1173.597656 127.273438 1173.316406 127.289062 C 1174.53125 109.773438 1175.59375 92.140625 1176.507812 74.277344 C 1172.320312 74.242188 1168.578125 74.203125 1164.664062 74.164062 C 1156.335938 104.277344 1148.082031 134.121094 1139.738281 164.28125 C 1143.375 163.695312 1146.570312 163.183594 1149.972656 162.636719 C 1154.855469 145.511719 1159.605469 128.855469 1164.359375 112.195312 C 1164.75 112.148438 1165.140625 112.101562 1165.527344 112.054688 C 1164.96875 128.535156 1164.265625 144.898438 1163.402344 161.398438 C 1167.21875 160.863281 1170.4375 160.410156 1173.804688 159.941406 C 1182.554688 131.363281 1191.242188 102.976562 1200 74.382812 C 1196.734375 74.363281 1193.808594 74.347656 1189.910156 74.320312 "/>
<path style=" stroke:none;fill-rule:nonzero;fill:rgb(94.117737%,33.724976%,30.587769%);fill-opacity:1;" d="M 1113.132812 144.722656 C 1113.132812 144.722656 1113.132812 144.71875 1113.136719 144.71875 C 1113.117188 144.703125 1113.117188 144.6875 1113.136719 144.65625 C 1113.6875 141.398438 1114.492188 138.125 1115.347656 134.851562 C 1116.105469 131.957031 1116.929688 129.050781 1117.640625 126.152344 C 1118.128906 124.207031 1118.605469 122.277344 1119.097656 120.347656 C 1121.183594 111.984375 1123.238281 103.617188 1125.359375 95.253906 C 1126.289062 91.566406 1128.0625 87.015625 1133.535156 86.9375 C 1139.875 86.871094 1138.722656 91.804688 1137.820312 95.429688 C 1134.625 108.269531 1131.253906 121.109375 1127.917969 133.949219 C 1127.917969 133.957031 1127.914062 133.960938 1127.910156 133.964844 C 1127.90625 133.964844 1127.902344 133.964844 1127.902344 133.964844 C 1127.539062 134.597656 1127.144531 136.023438 1126.71875 138.535156 C 1126.71875 138.539062 1126.71875 138.539062 1126.71875 138.542969 C 1126.242188 140.3125 1125.78125 142.097656 1125.324219 143.867188 C 1125.308594 143.898438 1125.308594 143.945312 1125.292969 143.976562 L 1125.292969 143.980469 C 1124.804688 145.292969 1124.265625 146.367188 1123.695312 147.234375 C 1122.898438 148.460938 1122.058594 149.308594 1121.277344 149.894531 C 1119.785156 151.011719 1118.511719 151.171875 1118.144531 151.203125 L 1118.050781 151.203125 C 1114.070312 151.25 1113.023438 148.203125 1113.132812 144.722656 M 1103.660156 138.042969 L 1103.660156 138.0625 C 1103.660156 138.0625 1103.660156 138.070312 1103.660156 138.074219 C 1103.605469 138.25 1103.078125 140.082031 1102.53125 142.769531 C 1102.523438 142.804688 1102.515625 142.835938 1102.503906 142.871094 C 1102.195312 144.394531 1101.882812 146.191406 1101.652344 148.117188 C 1101.578125 148.726562 1101.515625 149.347656 1101.457031 149.984375 C 1101.066406 154.425781 1101.203125 159.273438 1102.792969 162.914062 C 1103.097656 163.609375 1103.433594 164.179688 1103.796875 164.644531 C 1103.796875 164.644531 1103.800781 164.648438 1103.800781 164.648438 C 1103.8125 164.660156 1103.820312 164.671875 1103.828125 164.683594 C 1105.621094 167.265625 1108.5625 168.550781 1111.902344 168.550781 C 1115.996094 168.550781 1120.660156 166.605469 1124.441406 162.730469 C 1129.234375 157.828125 1133.597656 151.929688 1135.289062 146.492188 C 1140.917969 128.511719 1145.613281 110.53125 1149.867188 92.546875 C 1150.945312 87.980469 1150.234375 83.058594 1148.414062 78.949219 C 1144.460938 69.996094 1132.03125 69.710938 1123.632812 78.726562 C 1119.285156 83.394531 1116.199219 89.003906 1114.398438 94.335938 C 1111.410156 103.195312 1109.890625 112.160156 1107.738281 121.078125 C 1106.398438 126.742188 1105.019531 132.382812 1103.660156 138.042969 "/>
<path style=" stroke:none;fill-rule:nonzero;fill:rgb(74.510193%,13.725281%,18.03894%);fill-opacity:1;" d="M 934.242188 68.089844 C 929.035156 67.867188 924.378906 67.664062 919.402344 67.441406 C 915.308594 108.519531 911.273438 149.003906 907.191406 189.988281 C 912.195312 189.539062 916.675781 189.132812 921.085938 188.734375 C 925.519531 148.089844 929.878906 108.109375 934.242188 68.089844 "/>
<path style=" stroke:none;fill-rule:nonzero;fill:rgb(94.117737%,33.724976%,30.587769%);fill-opacity:1;" d="M 1053.882812 173.722656 C 1059.792969 145.039062 1065.621094 116.777344 1071.503906 88.242188 C 1076.167969 88.050781 1080.296875 87.882812 1084.414062 87.710938 C 1085.546875 82.460938 1086.558594 77.777344 1087.59375 72.984375 C 1074.390625 72.703125 1061.628906 72.398438 1048.695312 72.054688 C 1047.679688 77.46875 1046.730469 82.558594 1045.679688 88.164062 C 1050.191406 88.25 1054.296875 88.324219 1058.886719 88.402344 C 1053.15625 117.539062 1047.523438 146.15625 1041.734375 175.585938 C 1046.292969 174.886719 1049.859375 174.339844 1053.882812 173.722656 "/>
<path style=" stroke:none;fill-rule:nonzero;fill:rgb(94.117737%,33.724976%,30.587769%);fill-opacity:1;" d="M 1088.203125 162.816406 C 1094.671875 134.941406 1101.140625 107.070312 1107.613281 79.195312 C 1108.054688 77.292969 1108.496094 75.390625 1108.980469 73.292969 C 1104.835938 73.21875 1101.472656 73.152344 1097.664062 73.078125 C 1090.285156 106.097656 1083.015625 138.640625 1075.746094 171.171875 C 1086.28125 171.101562 1086.28125 171.09375 1088.203125 162.816406 "/>
<path style=" stroke:none;fill-rule:nonzero;fill:rgb(16.470337%,45.881653%,70.980835%);fill-opacity:1;" d="M 355.59375 255.621094 C 361.1875 286.1875 366.578125 315.625 372.054688 345.539062 C 375.816406 345.527344 379.339844 345.515625 382.933594 345.5 C 377.480469 315.027344 372.113281 285 366.632812 254.367188 Z M 355.59375 255.621094 "/>
<path style=" stroke:none;fill-rule:nonzero;fill:rgb(95.294189%,67.451477%,11.372375%);fill-opacity:1;" d="M 576.292969 223.179688 C 573.144531 187.578125 570.035156 152.503906 566.941406 117.414062 C 567.304688 117.398438 567.679688 117.386719 568.042969 117.375 C 578.085938 152.355469 587.761719 187 597.117188 221.378906 C 603.269531 220.773438 608.609375 220.246094 614.371094 219.679688 C 617.644531 185.84375 621.195312 152.449219 625.0625 119.324219 C 625.449219 119.378906 625.839844 119.433594 626.230469 119.472656 C 628.222656 152.140625 630.214844 184.792969 632.246094 217.972656 C 639.367188 217.257812 645.855469 216.625 652.546875 215.953125 C 649.738281 160.59375 646.929688 105.222656 644.117188 49.851562 L 644.167969 49.75 L 644.109375 49.746094 L 616.515625 47.515625 L 613.148438 47.21875 L 612.164062 58.21875 L 602.382812 167.011719 L 602.230469 166.421875 L 571.421875 43.179688 L 554.511719 41.539062 C 550.285156 41.113281 546.066406 40.710938 541.855469 40.308594 L 536.589844 39.796875 C 536.402344 39.773438 536.222656 39.761719 536.035156 39.738281 C 542.148438 101.613281 548.257812 163.472656 554.382812 225.347656 C 561.8125 224.621094 568.824219 223.921875 576.292969 223.179688 "/>
<path style=" stroke:none;fill-rule:nonzero;fill:rgb(50.588989%,69.412231%,25.881958%);fill-opacity:1;" d="M 1158.097656 173.289062 C 1146.199219 174.730469 1134.421875 176.148438 1122.300781 177.59375 C 1120.558594 184.179688 1118.828125 190.730469 1117.09375 197.277344 L 1100.40625 258.710938 L 1100.398438 258.699219 L 1064.851562 187.878906 L 1062.867188 183.925781 L 1054.527344 185.011719 C 1053.523438 185.082031 1052.453125 185.222656 1051.292969 185.429688 L 1021.207031 189.347656 C 1019.910156 189.476562 1018.609375 189.613281 1017.3125 189.765625 C 1009.96875 230.628906 1002.734375 270.898438 995.464844 311.335938 C 1007.921875 310.015625 1020.035156 308.699219 1032.777344 307.269531 C 1038.160156 281.867188 1043.488281 256.726562 1048.816406 231.582031 C 1049.253906 231.515625 1049.691406 231.449219 1050.128906 231.382812 C 1050.601562 232.15625 1051.09375 232.921875 1051.53125 233.710938 C 1063.6875 255.816406 1075.035156 277.152344 1085.292969 297.890625 C 1086.488281 300.308594 1088.148438 301.097656 1091.71875 300.597656 C 1103.601562 298.941406 1115.394531 297.59375 1127.210938 296.078125 C 1128.929688 295.859375 1130.648438 295.636719 1132.226562 295.433594 C 1144.960938 253.820312 1157.460938 212.992188 1170.046875 171.886719 L 1170.09375 171.800781 L 1158.507812 173.238281 Z M 1158.097656 173.289062 "/>
<path style=" stroke:none;fill-rule:nonzero;fill:rgb(18.431091%,66.275024%,87.059021%);fill-opacity:1;" d="M 634.222656 229.457031 L 620.886719 230.757812 C 619.429688 230.886719 617.992188 231 616.550781 231.101562 C 616.035156 231.136719 615.578125 231.210938 615.167969 231.3125 L 612.132812 231.609375 L 601.894531 312.976562 L 601.929688 313.046875 C 601.894531 313.054688 601.863281 313.058594 601.828125 313.0625 C 594.839844 287.292969 587.648438 261.332031 580.078125 234.605469 C 573.449219 235.199219 567.242188 235.753906 560.34375 236.367188 C 571.222656 271.851562 581.503906 306.292969 591.558594 340.949219 C 591.609375 340.945312 591.65625 340.945312 591.703125 340.941406 L 591.65625 340.992188 L 618.058594 340.183594 L 630.925781 252.035156 C 631.34375 249.496094 631.761719 246.960938 632.179688 244.425781 C 632.976562 239.632812 633.53125 234.785156 634.285156 229.449219 Z M 634.222656 229.457031 "/>
</g>
</svg>
